<!-- Generated by IcoMoon.io -->
<svg version="1.1" xmlns="http://www.w3.org/2000/svg" width="32" height="32" viewBox="0 0 32 32">
<title>adobeindesign</title>
<path fill="#fd3f93" d="M0 0.4v31.2h32v-31.2zM1.333 1.733h29.333v28.533h-29.333zM11.7 22.024c0 0.133-0.023 0.176-0.176 0.176h-2.048c-0.133 0-0.176-0.067-0.176-0.176v-14.315c0-0.133 0.067-0.176 0.176-0.176h2.071c0.109 0 0.153 0.044 0.153 0.155zM14.060 16.861c0-3.191 2.104-5.676 5.469-5.676 0.285 0 0.44 0 0.704 0.020v-3.539c0-0.088 0.067-0.133 0.133-0.133h2.167c0.112 0 0.133 0.045 0.133 0.112v12.473c0 0.373 0 0.833 0.067 1.339 0 0.088-0.027 0.111-0.116 0.155-1.144 0.551-2.355 0.793-3.499 0.793-2.951 0-5.063-1.827-5.059-5.544zM20.233 13.363c-0.197-0.088-0.463-0.133-0.792-0.133-1.713 0-2.916 1.32-2.916 3.52 0 2.509 1.224 3.52 2.764 3.52 0.329 0 0.683-0.043 0.947-0.153z"></path>
</svg>
